<svg width="176" height="28" viewBox="0 0 176 28" fill="none" xmlns="http://www.w3.org/2000/svg">
<path d="M65.694 18.249C65.8553 18.249 65.9983 18.3113 66.123 18.436L67.289 19.701C66.6437 20.5003 65.848 21.1127 64.902 21.538C63.9633 21.9633 62.834 22.176 61.514 22.176C60.3333 22.176 59.27 21.9743 58.324 21.571C57.3853 21.1677 56.5823 20.6067 55.915 19.888C55.2477 19.1693 54.7343 18.3113 54.375 17.314C54.023 16.3167 53.847 15.2277 53.847 14.047C53.847 12.8517 54.0377 11.759 54.419 10.769C54.8003 9.77167 55.3357 8.91367 56.025 8.195C56.7217 7.47633 57.5503 6.919 58.511 6.523C59.4717 6.11967 60.535 5.918 61.701 5.918C62.8597 5.918 63.8863 6.10867 64.781 6.49C65.683 6.87133 66.4493 7.37 67.08 7.986L66.09 9.361C66.0313 9.449 65.9543 9.526 65.859 9.592C65.771 9.658 65.6463 9.691 65.485 9.691C65.375 9.691 65.2613 9.66167 65.144 9.603C65.0267 9.537 64.8983 9.46 64.759 9.372C64.6197 9.27667 64.4583 9.174 64.275 9.064C64.0917 8.954 63.879 8.855 63.637 8.767C63.395 8.67167 63.1127 8.59467 62.79 8.536C62.4747 8.47 62.108 8.437 61.69 8.437C60.9787 8.437 60.326 8.56533 59.732 8.822C59.1453 9.07133 58.6393 9.438 58.214 9.922C57.7887 10.3987 57.4587 10.9853 57.224 11.682C56.9893 12.3713 56.872 13.1597 56.872 14.047C56.872 14.9417 56.9967 15.7373 57.246 16.434C57.5027 17.1307 57.8473 17.7173 58.28 18.194C58.7127 18.6707 59.2223 19.0373 59.809 19.294C60.3957 19.5433 61.0263 19.668 61.701 19.668C62.1043 19.668 62.4673 19.646 62.79 19.602C63.12 19.558 63.4207 19.4883 63.692 19.393C63.9707 19.2977 64.231 19.1767 64.473 19.03C64.7223 18.876 64.968 18.689 65.21 18.469C65.2833 18.403 65.3603 18.3517 65.441 18.315C65.5217 18.271 65.606 18.249 65.694 18.249ZM73.6446 10.538C74.4806 10.538 75.2396 10.6737 75.9216 10.945C76.6109 11.2163 77.1976 11.6013 77.6816 12.1C78.1729 12.5987 78.5506 13.2073 78.8146 13.926C79.0786 14.6447 79.2106 15.4477 79.2106 16.335C79.2106 17.2297 79.0786 18.0363 78.8146 18.755C78.5506 19.4737 78.1729 20.086 77.6816 20.592C77.1976 21.098 76.6109 21.4867 75.9216 21.758C75.2396 22.0293 74.4806 22.165 73.6446 22.165C72.8013 22.165 72.0349 22.0293 71.3456 21.758C70.6563 21.4867 70.0659 21.098 69.5746 20.592C69.0906 20.086 68.7129 19.4737 68.4416 18.755C68.1776 18.0363 68.0456 17.2297 68.0456 16.335C68.0456 15.4477 68.1776 14.6447 68.4416 13.926C68.7129 13.2073 69.0906 12.5987 69.5746 12.1C70.0659 11.6013 70.6563 11.2163 71.3456 10.945C72.0349 10.6737 72.8013 10.538 73.6446 10.538ZM73.6446 20.075C74.5833 20.075 75.2763 19.7597 75.7236 19.129C76.1783 18.4983 76.4056 17.5743 76.4056 16.357C76.4056 15.1397 76.1783 14.212 75.7236 13.574C75.2763 12.936 74.5833 12.617 73.6446 12.617C72.6913 12.617 71.9836 12.9397 71.5216 13.585C71.0669 14.223 70.8396 15.147 70.8396 16.357C70.8396 17.567 71.0669 18.491 71.5216 19.129C71.9836 19.7597 72.6913 20.075 73.6446 20.075ZM83.8244 12.1C84.0517 11.8727 84.2901 11.6637 84.5394 11.473C84.7961 11.275 85.0637 11.11 85.3424 10.978C85.6284 10.8387 85.9327 10.7323 86.2554 10.659C86.5781 10.5783 86.9301 10.538 87.3114 10.538C87.9274 10.538 88.4737 10.6443 88.9504 10.857C89.4271 11.0623 89.8231 11.3557 90.1384 11.737C90.4611 12.111 90.7031 12.562 90.8644 13.09C91.0331 13.6107 91.1174 14.1863 91.1174 14.817V22H88.4004V14.817C88.4004 14.1277 88.2427 13.596 87.9274 13.222C87.6121 12.8407 87.1317 12.65 86.4864 12.65C86.0171 12.65 85.5771 12.7563 85.1664 12.969C84.7557 13.1817 84.3671 13.4713 84.0004 13.838V22H81.2834V10.714H82.9444C83.2964 10.714 83.5274 10.879 83.6374 11.209L83.8244 12.1ZM94.311 22V12.76L93.332 12.606C93.1193 12.562 92.947 12.4887 92.815 12.386C92.6903 12.276 92.628 12.122 92.628 11.924V10.813H94.311V10.45C94.311 9.76067 94.4247 9.12267 94.652 8.536C94.8793 7.942 95.224 7.42867 95.686 6.996C96.148 6.56333 96.731 6.226 97.435 5.984C98.1463 5.73467 98.9823 5.61 99.943 5.61C100.251 5.61 100.563 5.62833 100.878 5.665C101.201 5.69433 101.479 5.74567 101.714 5.819L101.626 7.227C101.611 7.39567 101.52 7.49833 101.351 7.535C101.182 7.56433 100.973 7.579 100.724 7.579C100.013 7.579 99.415 7.64133 98.931 7.766C98.4543 7.89067 98.0657 8.07767 97.765 8.327C97.4717 8.569 97.259 8.877 97.127 9.251C97.0023 9.61767 96.94 10.0467 96.94 10.538V10.813H103.936V22H101.219V12.749H97.028V22H94.311ZM110.846 16.082C111.183 16.082 111.477 16.038 111.726 15.95C111.975 15.8547 112.181 15.7263 112.342 15.565C112.511 15.4037 112.635 15.2093 112.716 14.982C112.804 14.7547 112.848 14.5053 112.848 14.234C112.848 13.6767 112.679 13.2367 112.342 12.914C112.012 12.584 111.513 12.419 110.846 12.419C110.179 12.419 109.676 12.584 109.339 12.914C109.009 13.2367 108.844 13.6767 108.844 14.234C108.844 14.498 108.884 14.7437 108.965 14.971C109.053 15.1983 109.178 15.3963 109.339 15.565C109.508 15.7263 109.717 15.8547 109.966 15.95C110.223 16.038 110.516 16.082 110.846 16.082ZM113.915 22.506C113.915 22.286 113.849 22.1063 113.717 21.967C113.585 21.8277 113.405 21.7213 113.178 21.648C112.951 21.5673 112.683 21.5087 112.375 21.472C112.074 21.4353 111.752 21.4097 111.407 21.395C111.07 21.373 110.718 21.3547 110.351 21.34C109.992 21.3253 109.64 21.296 109.295 21.252C108.994 21.4207 108.749 21.6187 108.558 21.846C108.375 22.0733 108.283 22.3373 108.283 22.638C108.283 22.836 108.331 23.0193 108.426 23.188C108.529 23.364 108.686 23.5143 108.899 23.639C109.119 23.7637 109.401 23.859 109.746 23.925C110.091 23.9983 110.512 24.035 111.011 24.035C111.517 24.035 111.953 23.9947 112.32 23.914C112.687 23.8407 112.987 23.7343 113.222 23.595C113.464 23.463 113.64 23.3017 113.75 23.111C113.86 22.9277 113.915 22.726 113.915 22.506ZM116.621 11.099V12.111C116.621 12.4337 116.427 12.6317 116.038 12.705L115.026 12.892C115.18 13.2807 115.257 13.706 115.257 14.168C115.257 14.7253 115.143 15.2313 114.916 15.686C114.696 16.1333 114.388 16.5147 113.992 16.83C113.596 17.1453 113.127 17.391 112.584 17.567C112.049 17.7357 111.469 17.82 110.846 17.82C110.626 17.82 110.413 17.809 110.208 17.787C110.003 17.765 109.801 17.7357 109.603 17.699C109.251 17.9117 109.075 18.15 109.075 18.414C109.075 18.6413 109.178 18.81 109.383 18.92C109.596 19.0227 109.874 19.096 110.219 19.14C110.564 19.184 110.956 19.2133 111.396 19.228C111.836 19.2353 112.287 19.2573 112.749 19.294C113.211 19.3307 113.662 19.3967 114.102 19.492C114.542 19.58 114.934 19.723 115.279 19.921C115.624 20.119 115.899 20.3903 116.104 20.735C116.317 21.0723 116.423 21.5087 116.423 22.044C116.423 22.5427 116.298 23.0267 116.049 23.496C115.807 23.9653 115.451 24.3833 114.982 24.75C114.52 25.1167 113.948 25.41 113.266 25.63C112.591 25.8573 111.821 25.971 110.956 25.971C110.105 25.971 109.365 25.8867 108.734 25.718C108.103 25.5567 107.579 25.3367 107.161 25.058C106.743 24.7867 106.431 24.4713 106.226 24.112C106.021 23.7527 105.918 23.3787 105.918 22.99C105.918 22.462 106.076 22.022 106.391 21.67C106.714 21.3107 107.154 21.0247 107.711 20.812C107.41 20.658 107.172 20.4527 106.996 20.196C106.82 19.9393 106.732 19.602 106.732 19.184C106.732 19.0153 106.761 18.843 106.82 18.667C106.886 18.4837 106.978 18.304 107.095 18.128C107.22 17.952 107.374 17.787 107.557 17.633C107.74 17.4717 107.957 17.3287 108.206 17.204C107.634 16.896 107.183 16.4853 106.853 15.972C106.53 15.4587 106.369 14.8573 106.369 14.168C106.369 13.6107 106.479 13.1083 106.699 12.661C106.926 12.2063 107.238 11.8213 107.634 11.506C108.037 11.1833 108.51 10.9377 109.053 10.769C109.603 10.6003 110.201 10.516 110.846 10.516C111.33 10.516 111.785 10.5673 112.21 10.67C112.635 10.7653 113.024 10.9083 113.376 11.099H116.621ZM120.907 12.672C121.259 11.9973 121.677 11.4693 122.161 11.088C122.645 10.6993 123.217 10.505 123.877 10.505C124.398 10.505 124.816 10.6187 125.131 10.846L124.955 12.881C124.918 13.013 124.863 13.1083 124.79 13.167C124.724 13.2183 124.632 13.244 124.515 13.244C124.405 13.244 124.24 13.2257 124.02 13.189C123.807 13.1523 123.598 13.134 123.393 13.134C123.092 13.134 122.825 13.178 122.59 13.266C122.355 13.354 122.143 13.4823 121.952 13.651C121.769 13.8123 121.604 14.0103 121.457 14.245C121.318 14.4797 121.186 14.7473 121.061 15.048V22H118.344V10.714H119.939C120.218 10.714 120.412 10.7653 120.522 10.868C120.632 10.9633 120.705 11.1393 120.742 11.396L120.907 12.672ZM132.363 17.182C131.578 17.2187 130.918 17.2883 130.383 17.391C129.847 17.4863 129.418 17.611 129.096 17.765C128.773 17.919 128.542 18.0987 128.403 18.304C128.263 18.5093 128.194 18.733 128.194 18.975C128.194 19.4517 128.333 19.7927 128.612 19.998C128.898 20.2033 129.268 20.306 129.723 20.306C130.28 20.306 130.76 20.207 131.164 20.009C131.574 19.8037 131.974 19.4957 132.363 19.085V17.182ZM126.137 12.287C127.435 11.099 128.997 10.505 130.823 10.505C131.483 10.505 132.073 10.615 132.594 10.835C133.114 11.0477 133.554 11.3483 133.914 11.737C134.273 12.1183 134.544 12.5767 134.728 13.112C134.918 13.6473 135.014 14.234 135.014 14.872V22H133.782C133.525 22 133.327 21.9633 133.188 21.89C133.048 21.8093 132.938 21.6517 132.858 21.417L132.616 20.603C132.33 20.8597 132.051 21.087 131.78 21.285C131.508 21.4757 131.226 21.637 130.933 21.769C130.639 21.901 130.324 22 129.987 22.066C129.657 22.1393 129.29 22.176 128.887 22.176C128.41 22.176 127.97 22.1137 127.567 21.989C127.163 21.857 126.815 21.6627 126.522 21.406C126.228 21.1493 126.001 20.8303 125.84 20.449C125.678 20.0677 125.598 19.624 125.598 19.118C125.598 18.832 125.645 18.5497 125.741 18.271C125.836 17.985 125.99 17.7137 126.203 17.457C126.423 17.2003 126.705 16.9583 127.05 16.731C127.394 16.5037 127.816 16.3057 128.315 16.137C128.821 15.9683 129.407 15.8327 130.075 15.73C130.742 15.62 131.505 15.554 132.363 15.532V14.872C132.363 14.1167 132.201 13.5593 131.879 13.2C131.556 12.8333 131.09 12.65 130.482 12.65C130.042 12.65 129.675 12.7013 129.382 12.804C129.096 12.9067 128.843 13.024 128.623 13.156C128.403 13.2807 128.201 13.3943 128.018 13.497C127.842 13.5997 127.644 13.651 127.424 13.651C127.233 13.651 127.072 13.6033 126.94 13.508C126.808 13.4053 126.701 13.288 126.621 13.156L126.137 12.287ZM148.807 22H146.09V12.749H140.854V18.865C140.854 19.217 140.938 19.492 141.107 19.69C141.283 19.888 141.521 19.987 141.822 19.987C141.991 19.987 142.13 19.9687 142.24 19.932C142.357 19.888 142.456 19.844 142.537 19.8C142.625 19.756 142.702 19.7157 142.768 19.679C142.834 19.635 142.9 19.613 142.966 19.613C143.047 19.613 143.113 19.635 143.164 19.679C143.215 19.7157 143.27 19.7743 143.329 19.855L144.143 21.175C143.747 21.505 143.292 21.7543 142.779 21.923C142.266 22.0917 141.734 22.176 141.184 22.176C140.201 22.176 139.446 21.901 138.918 21.351C138.397 20.7937 138.137 20.0273 138.137 19.052V12.749H136.982C136.835 12.749 136.711 12.7013 136.608 12.606C136.505 12.5107 136.454 12.3677 136.454 12.177V11.099L138.269 10.791L138.841 7.722C138.878 7.57533 138.947 7.46167 139.05 7.381C139.153 7.30033 139.285 7.26 139.446 7.26H140.854V10.813H148.807V22ZM149.28 7.381C149.28 7.61567 149.232 7.83933 149.137 8.052C149.042 8.25733 148.913 8.437 148.752 8.591C148.598 8.745 148.411 8.86967 148.191 8.965C147.978 9.053 147.751 9.097 147.509 9.097C147.274 9.097 147.054 9.053 146.849 8.965C146.644 8.86967 146.464 8.745 146.31 8.591C146.156 8.437 146.031 8.25733 145.936 8.052C145.848 7.83933 145.804 7.61567 145.804 7.381C145.804 7.139 145.848 6.91533 145.936 6.71C146.031 6.49733 146.156 6.314 146.31 6.16C146.464 5.99867 146.644 5.874 146.849 5.786C147.054 5.69067 147.274 5.643 147.509 5.643C147.751 5.643 147.978 5.69067 148.191 5.786C148.411 5.874 148.598 5.99867 148.752 6.16C148.913 6.314 149.042 6.49733 149.137 6.71C149.232 6.91533 149.28 7.139 149.28 7.381ZM156.574 10.538C157.41 10.538 158.169 10.6737 158.851 10.945C159.541 11.2163 160.127 11.6013 160.611 12.1C161.103 12.5987 161.48 13.2073 161.744 13.926C162.008 14.6447 162.14 15.4477 162.14 16.335C162.14 17.2297 162.008 18.0363 161.744 18.755C161.48 19.4737 161.103 20.086 160.611 20.592C160.127 21.098 159.541 21.4867 158.851 21.758C158.169 22.0293 157.41 22.165 156.574 22.165C155.731 22.165 154.965 22.0293 154.275 21.758C153.586 21.4867 152.996 21.098 152.504 20.592C152.02 20.086 151.643 19.4737 151.371 18.755C151.107 18.0363 150.975 17.2297 150.975 16.335C150.975 15.4477 151.107 14.6447 151.371 13.926C151.643 13.2073 152.02 12.5987 152.504 12.1C152.996 11.6013 153.586 11.2163 154.275 10.945C154.965 10.6737 155.731 10.538 156.574 10.538ZM156.574 20.075C157.513 20.075 158.206 19.7597 158.653 19.129C159.108 18.4983 159.335 17.5743 159.335 16.357C159.335 15.1397 159.108 14.212 158.653 13.574C158.206 12.936 157.513 12.617 156.574 12.617C155.621 12.617 154.913 12.9397 154.451 13.585C153.997 14.223 153.769 15.147 153.769 16.357C153.769 17.567 153.997 18.491 154.451 19.129C154.913 19.7597 155.621 20.075 156.574 20.075ZM166.754 12.1C166.981 11.8727 167.22 11.6637 167.469 11.473C167.726 11.275 167.993 11.11 168.272 10.978C168.558 10.8387 168.862 10.7323 169.185 10.659C169.508 10.5783 169.86 10.538 170.241 10.538C170.857 10.538 171.403 10.6443 171.88 10.857C172.357 11.0623 172.753 11.3557 173.068 11.737C173.391 12.111 173.633 12.562 173.794 13.09C173.963 13.6107 174.047 14.1863 174.047 14.817V22H171.33V14.817C171.33 14.1277 171.172 13.596 170.857 13.222C170.542 12.8407 170.061 12.65 169.416 12.65C168.947 12.65 168.507 12.7563 168.096 12.969C167.685 13.1817 167.297 13.4713 166.93 13.838V22H164.213V10.714H165.874C166.226 10.714 166.457 10.879 166.567 11.209L166.754 12.1Z" fill="#352B2B"/>
<path d="M20.242 8.22542C20.2474 8.09775 20.226 7.97037 20.1793 7.85143C20.1326 7.73249 20.0616 7.62461 19.9708 7.53469C19.88 7.44478 19.7715 7.37482 19.6521 7.32928C19.5327 7.28373 19.4051 7.26362 19.2775 7.27022C18.8112 7.26489 18.345 7.26489 17.8787 7.27022C17.8486 7.27535 17.8177 7.27444 17.788 7.26754C17.7582 7.26065 17.7301 7.24791 17.7053 7.23006C17.6805 7.21221 17.6595 7.1896 17.6435 7.16356C17.6276 7.13752 17.6169 7.10857 17.6122 7.07838C17.4972 6.68071 17.3376 6.29728 17.1366 5.93535C17.1168 5.90892 17.1026 5.87875 17.0947 5.84666C17.0868 5.81457 17.0855 5.78122 17.0909 5.74862C17.0962 5.71602 17.1081 5.68483 17.1258 5.65694C17.1435 5.62905 17.1667 5.60503 17.1939 5.58631C17.5296 5.26303 17.8596 4.93353 18.1838 4.59781C18.2746 4.51225 18.3469 4.40902 18.3964 4.29447C18.4458 4.17992 18.4713 4.05647 18.4713 3.9317C18.4713 3.80694 18.4458 3.68349 18.3964 3.56894C18.3469 3.45439 18.2746 3.35116 18.1838 3.2656C17.7948 2.86594 17.3978 2.46628 16.9968 2.07727C16.5598 1.64963 16.0336 1.65363 15.5939 2.08527C15.2689 2.405 14.9438 2.72606 14.6281 3.05378C14.6112 3.07902 14.5893 3.10054 14.5638 3.117C14.5383 3.13347 14.5097 3.14454 14.4797 3.14954C14.4498 3.15453 14.4191 3.15334 14.3897 3.14603C14.3602 3.13873 14.3325 3.12547 14.3084 3.10707C13.9592 2.90368 13.5847 2.74735 13.1946 2.64213C12.9988 2.58884 12.9615 2.48893 12.9655 2.31041C12.9748 1.85479 12.9735 1.39784 12.9655 0.942229C12.9686 0.817462 12.9463 0.693367 12.8999 0.577506C12.8535 0.461645 12.784 0.356445 12.6956 0.268319C12.6073 0.180193 12.5019 0.110987 12.3859 0.0649179C12.2699 0.0188491 12.1457 -0.00311923 12.021 0.000356531C11.7412 0.000356531 11.4614 0.000356531 11.1817 0.000356531H10.4103C9.74422 0.000356531 9.3672 0.368053 9.36454 1.03149C9.36454 1.46712 9.35521 1.90276 9.36454 2.33706C9.37098 2.37183 9.37022 2.40756 9.3623 2.44203C9.35437 2.4765 9.33946 2.50897 9.31848 2.53745C9.2975 2.56592 9.2709 2.58978 9.24032 2.60755C9.20975 2.62533 9.17585 2.63665 9.14073 2.64079C8.75235 2.75162 8.37849 2.90813 8.027 3.10707C8.00307 3.12576 7.97558 3.13939 7.94621 3.14712C7.91684 3.15485 7.88621 3.15653 7.85617 3.15204C7.82614 3.14755 7.79733 3.137 7.7715 3.12102C7.74567 3.10504 7.72337 3.08398 7.70594 3.05911C7.38443 2.72073 7.05627 2.38945 6.72144 2.06528C6.29513 1.65363 5.76624 1.65629 5.33994 2.06528C4.94827 2.44984 4.55971 2.8384 4.17426 3.23096C3.75861 3.6546 3.75861 4.18883 4.17426 4.6098C4.48599 4.9282 4.79906 5.24659 5.12146 5.55433C5.25468 5.67956 5.29331 5.78347 5.19339 5.954C4.99853 6.29584 4.84683 6.66055 4.74178 7.03975C4.73689 7.07465 4.72513 7.10822 4.70717 7.13854C4.68922 7.16886 4.66543 7.19532 4.63718 7.21638C4.60893 7.23745 4.57678 7.2527 4.5426 7.26126C4.50841 7.26981 4.47287 7.2715 4.43803 7.26623C3.99308 7.2529 3.54679 7.25957 3.10582 7.26623C2.48235 7.26623 2.108 7.64857 2.104 8.2787C2.104 8.81159 2.104 9.34048 2.104 9.86537C2.104 10.4862 2.49567 10.8698 3.11648 10.8752C3.55211 10.8752 3.98775 10.8832 4.42338 10.8752C4.60189 10.8752 4.70581 10.9098 4.7551 11.1017C4.85453 11.483 5.00605 11.8488 5.20538 12.1887C5.29864 12.3499 5.25601 12.4445 5.13478 12.5604C4.80572 12.8762 4.48333 13.1999 4.16626 13.5263C4.07428 13.6115 4.00059 13.7145 3.94966 13.829C3.89873 13.9436 3.87163 14.0673 3.87001 14.1927C3.86839 14.318 3.89228 14.4424 3.94023 14.5582C3.98819 14.6741 4.05919 14.7789 4.14894 14.8665C4.54861 15.2857 4.95893 15.696 5.3799 16.0974C5.46683 16.1869 5.5711 16.2576 5.68633 16.3054C5.80155 16.3531 5.92531 16.3769 6.05003 16.3751C6.17474 16.3734 6.29779 16.3462 6.41163 16.2952C6.52548 16.2443 6.62772 16.1706 6.71211 16.0788C7.03983 15.7617 7.36623 15.4433 7.67663 15.1089C7.69811 15.0777 7.72585 15.0512 7.75808 15.0312C7.79031 15.0112 7.82634 14.998 7.8639 14.9927C7.90146 14.9873 7.93972 14.9897 7.97628 14.9999C8.01284 15.0101 8.04689 15.0277 8.07629 15.0517C8.40937 15.2404 8.76411 15.388 9.13273 15.4913C9.30459 15.5406 9.38452 15.6152 9.37653 15.811C9.36054 16.256 9.36987 16.7023 9.37653 17.1432C9.37653 17.7174 9.73756 18.1171 10.3091 18.1357C10.8806 18.1544 11.4694 18.1544 12.0489 18.1357C12.6284 18.1171 12.9815 17.7201 12.9815 17.1485C12.9815 16.6916 12.9895 16.236 12.9815 15.7804C12.976 15.7482 12.9771 15.7152 12.9847 15.6835C12.9922 15.6517 13.0061 15.6218 13.0256 15.5956C13.045 15.5693 13.0695 15.5473 13.0976 15.5307C13.1257 15.5142 13.1569 15.5035 13.1893 15.4993C13.5784 15.3904 13.9528 15.2348 14.3044 15.0357C14.3323 15.0139 14.3645 14.9982 14.3989 14.9895C14.4332 14.9808 14.469 14.9794 14.504 14.9853C14.5389 14.9912 14.5723 15.0042 14.6019 15.0237C14.6315 15.0431 14.6568 15.0685 14.6761 15.0983C14.9811 15.422 15.3009 15.7337 15.6179 16.0468C16.0536 16.4744 16.5838 16.4798 17.0221 16.0468C17.4084 15.6711 17.7894 15.2901 18.1651 14.9038C18.6047 14.4508 18.5994 13.9273 18.1544 13.473C17.844 13.1546 17.5296 12.8362 17.2086 12.5285C17.1813 12.5099 17.1581 12.486 17.1404 12.4581C17.1228 12.4302 17.111 12.399 17.1059 12.3664C17.1008 12.3338 17.1024 12.3005 17.1107 12.2686C17.1189 12.2367 17.1337 12.2068 17.154 12.1807C17.3468 11.8323 17.4971 11.462 17.6016 11.0777C17.606 11.0452 17.6171 11.0139 17.6341 10.9858C17.651 10.9578 17.6735 10.9334 17.7002 10.9143C17.7269 10.8953 17.7572 10.8818 17.7893 10.8749C17.8213 10.8679 17.8545 10.8676 17.8867 10.8738C18.3529 10.8832 18.8192 10.8832 19.2868 10.8738C19.4119 10.8767 19.5362 10.8544 19.6524 10.8082C19.7687 10.7621 19.8744 10.693 19.9634 10.6051C20.0524 10.5172 20.1228 10.4124 20.1705 10.2967C20.2181 10.1811 20.242 10.057 20.2407 9.93198C20.2527 9.36579 20.25 8.7956 20.242 8.22542ZM11.1537 12.5618C10.4639 12.5594 9.7902 12.3526 9.21787 11.9675C8.64553 11.5823 8.20021 11.0362 7.93816 10.3981C7.67612 9.75994 7.60912 9.05844 7.74564 8.38224C7.88216 7.70604 8.21606 7.0855 8.70515 6.59901C9.19425 6.11252 9.81658 5.78193 10.4935 5.64903C11.1704 5.51613 11.8715 5.58687 12.5083 5.85232C13.145 6.11776 13.6887 6.566 14.0708 7.14039C14.4528 7.71477 14.6561 8.38952 14.6547 9.07936C14.6546 9.5382 14.5638 9.99249 14.3875 10.4161C14.2113 10.8398 13.9531 11.2244 13.6278 11.548C13.3025 11.8716 12.9164 12.1277 12.4919 12.3017C12.0673 12.4756 11.6125 12.564 11.1537 12.5618Z" fill="#352B2B"/>
<path d="M21.9534 23.2239C21.7362 23.1547 21.5137 23.1067 21.2953 23.0454C21.206 23.0201 21.1367 22.9948 21.1181 22.8696C21.0062 22.1502 21.0008 22.1515 21.631 21.7785C21.6749 21.7518 21.7216 21.7292 21.7642 21.6999C22.0306 21.52 22.0959 21.2896 21.9454 21.0005C21.8122 20.734 21.655 20.4756 21.4951 20.2211C21.4648 20.1603 21.4221 20.1065 21.3697 20.0633C21.3173 20.0201 21.2564 19.9884 21.1909 19.9703C21.1254 19.9522 21.0568 19.9481 20.9896 19.9583C20.9225 19.9684 20.8582 19.9926 20.801 20.0293C20.6168 20.1216 20.4388 20.2257 20.2681 20.341C20.1136 20.4476 20.0257 20.389 19.8685 20.3077C19.3662 20.0413 19.3356 19.6843 19.5447 19.226C19.5632 19.1774 19.5736 19.1261 19.5754 19.0741C19.6207 18.7384 19.5181 18.5639 19.1944 18.4626C18.9186 18.376 18.6388 18.2988 18.3577 18.2348C18.0167 18.1575 17.8035 18.2948 17.701 18.6345C17.645 18.8223 17.593 19.0128 17.5504 19.2033C17.5171 19.3565 17.4412 19.4098 17.284 19.4311C16.6179 19.5151 16.6179 19.5231 16.2782 18.9396C16.2515 18.8956 16.2289 18.849 16.2009 18.8063C16.0104 18.5226 15.7772 18.4546 15.4802 18.6118C15.2257 18.7451 14.9739 18.8929 14.7275 19.0461C14.4437 19.2207 14.3771 19.4671 14.529 19.7642C14.6329 19.968 14.7501 20.1639 14.8673 20.3584C14.8971 20.3925 14.9134 20.4363 14.9134 20.4816C14.9134 20.5269 14.8971 20.5706 14.8673 20.6048C14.437 21.1937 14.441 21.1963 13.7363 21.0165C13.6773 20.9968 13.6173 20.9803 13.5565 20.9672C13.29 20.9259 13.0742 21.0245 12.9876 21.2842C12.8804 21.5974 12.7945 21.9174 12.7305 22.2421C12.6665 22.5658 12.7958 22.7497 13.1155 22.8483C13.3233 22.9122 13.5351 22.9615 13.7443 23.0148C13.7886 23.0232 13.8288 23.0461 13.8587 23.0799C13.8886 23.1136 13.9065 23.1563 13.9095 23.2013C14.0427 23.93 14.0427 23.9287 13.4139 24.2937C13.3779 24.315 13.342 24.3337 13.3073 24.355C13.0049 24.5481 12.937 24.7813 13.1008 25.0957C13.2114 25.3075 13.3366 25.51 13.4552 25.7165C13.7217 26.1761 13.9441 26.2587 14.3878 25.955C14.7954 25.6739 15.1245 25.6126 15.4922 26.0122C15.6147 26.1455 15.6747 26.2347 15.6254 26.4039C15.5548 26.6317 15.5001 26.8622 15.4588 27.0181C15.4362 27.3631 15.5721 27.531 15.8159 27.6069C16.0916 27.6935 16.3741 27.7628 16.6538 27.8347C17.0135 27.9266 17.2254 27.8054 17.3359 27.4457C17.3999 27.2379 17.4598 27.0287 17.5078 26.8169C17.5143 26.7661 17.5395 26.7194 17.5783 26.686C17.6172 26.6525 17.667 26.6346 17.7183 26.6357C18.415 26.5411 18.4137 26.5371 18.784 27.1566C18.8094 27.2019 18.836 27.2459 18.8653 27.2898C19.0518 27.5563 19.265 27.6229 19.5607 27.4697C19.8178 27.3365 20.067 27.1873 20.3147 27.0354C20.6172 26.8515 20.6824 26.6131 20.5159 26.2973C20.416 26.1055 20.3028 25.919 20.1935 25.7312C20.1623 25.6977 20.1441 25.6542 20.1422 25.6086C20.1402 25.5629 20.1547 25.518 20.1829 25.482C20.5932 24.8759 20.5825 24.8719 21.3072 25.0624C21.3472 25.0717 21.3885 25.077 21.4285 25.0864C21.7828 25.1663 22.0106 25.0397 22.1106 24.6867C22.1878 24.4203 22.2558 24.1472 22.3197 23.8767C22.393 23.5463 22.2691 23.3225 21.9534 23.2239ZM17.5304 24.7706C17.0696 24.7753 16.6257 24.5967 16.2965 24.2742C15.9672 23.9517 15.7795 23.5116 15.7746 23.0507C15.7742 22.5845 15.9582 22.1371 16.2863 21.8059C16.6145 21.4748 17.0602 21.2868 17.5264 21.2829C17.9878 21.2868 18.4289 21.473 18.7534 21.801C19.0779 22.129 19.2594 22.5721 19.2583 23.0334C19.2615 23.2617 19.2191 23.4882 19.1335 23.6998C19.0479 23.9114 18.9209 24.1038 18.7599 24.2656C18.599 24.4275 18.4073 24.5555 18.1962 24.6422C17.985 24.7289 17.7587 24.7726 17.5304 24.7706Z" fill="#352B2B"/>
<path d="M9.09148 22.8898C9.13227 22.8844 9.17243 22.8751 9.21138 22.8618C9.55775 22.7539 9.68831 22.5594 9.61104 22.2064C9.55016 21.9128 9.47322 21.6229 9.38057 21.3378C9.27932 21.022 9.05684 20.9115 8.72645 20.9927C8.51463 21.0433 8.30414 21.0993 8.09632 21.1566C8.0554 21.1762 8.00885 21.1807 7.96495 21.1692C7.92105 21.1577 7.88263 21.1311 7.85652 21.094C7.38225 20.5384 7.38225 20.5384 7.74728 19.899C7.77792 19.8444 7.80989 19.7897 7.83521 19.7338C7.86602 19.677 7.8853 19.6146 7.89193 19.5503C7.89856 19.486 7.89241 19.4211 7.87384 19.3592C7.85527 19.2973 7.82464 19.2396 7.78371 19.1896C7.74279 19.1396 7.69237 19.0982 7.63537 19.0677C7.38225 18.9025 7.11581 18.7533 6.85603 18.6121C6.79983 18.5734 6.73599 18.5473 6.66883 18.5355C6.60167 18.5236 6.53274 18.5263 6.46671 18.5433C6.40067 18.5604 6.33906 18.5914 6.28603 18.6343C6.23299 18.6772 6.18978 18.7309 6.15929 18.7919C6.03406 18.9811 5.92215 19.1809 5.81558 19.3821C5.75163 19.498 5.68236 19.5153 5.54914 19.5153C5.0016 19.5153 4.69119 19.2915 4.66455 18.7226C4.65535 18.6512 4.63419 18.5819 4.60194 18.5175C4.51268 18.315 4.35415 18.2191 4.03575 18.2217C3.75066 18.3057 3.36964 18.4016 3.00062 18.5308C2.91712 18.5641 2.84773 18.6253 2.80426 18.704C2.76078 18.7827 2.74591 18.874 2.76216 18.9624C2.76856 19.1073 2.79779 19.2503 2.84875 19.3861C3.00062 19.7444 2.96732 19.9856 2.59696 20.2254C2.34118 20.3919 2.1973 20.4252 1.93752 20.2667C1.14619 19.7884 1.08491 19.8151 0.623963 20.6064C0.163019 21.3977 0.165683 21.479 0.994317 21.9386C1.25277 22.0798 1.28207 22.229 1.27275 22.5154C1.25943 22.9724 1.04627 23.1216 0.651939 23.1616C0.549794 23.177 0.449989 23.2052 0.354857 23.2455C0.292104 23.2625 0.23346 23.2921 0.18247 23.3325C0.13148 23.3728 0.0892036 23.4231 0.0581964 23.4803C0.0271891 23.5374 0.00809554 23.6003 0.00206955 23.665C-0.00395644 23.7298 0.00321018 23.7951 0.0231369 23.857C0.0910795 24.1487 0.163019 24.4391 0.250945 24.7256C0.346864 25.0413 0.576003 25.1652 0.897066 25.0906C1.0691 25.0559 1.23901 25.0114 1.40597 24.9574C1.61779 24.8828 1.7257 24.9574 1.88956 25.1172C2.25059 25.4769 2.21462 25.7913 1.92153 26.1444C1.8776 26.2025 1.84133 26.2661 1.81362 26.3336C1.7781 26.3913 1.75503 26.4558 1.74589 26.5229C1.73676 26.59 1.74176 26.6584 1.76057 26.7235C1.77939 26.7886 1.8116 26.849 1.85515 26.9009C1.8987 26.9529 1.95262 26.9951 2.01346 27.025C2.26924 27.1835 2.52769 27.334 2.7928 27.4753C3.07922 27.6271 3.3057 27.5645 3.48555 27.2861C3.60471 27.1044 3.71454 26.9168 3.8146 26.7239C3.88254 26.5907 3.96781 26.5747 4.11035 26.572C4.64323 26.5614 4.95231 26.7798 4.97229 27.338C4.98074 27.3998 4.99825 27.4599 5.02425 27.5166C5.04217 27.5792 5.07231 27.6377 5.11293 27.6887C5.15355 27.7396 5.20384 27.7821 5.26092 27.8135C5.318 27.845 5.38074 27.8648 5.44552 27.8719C5.5103 27.879 5.57585 27.8733 5.63839 27.8549C5.93015 27.7857 6.21924 27.7057 6.50566 27.6178C6.57262 27.6049 6.63612 27.578 6.69203 27.539C6.74794 27.5 6.79501 27.4496 6.83019 27.3912C6.86537 27.3327 6.88786 27.2676 6.89622 27.1999C6.90457 27.1322 6.8986 27.0635 6.87868 26.9983C6.8412 26.806 6.79091 26.6164 6.72814 26.4308C6.66819 26.2496 6.72814 26.1537 6.86136 26.0112C7.23305 25.6115 7.58075 25.6461 7.96043 25.9712C8.00184 26.0018 8.04652 26.0277 8.09365 26.0485C8.38408 26.1937 8.61721 26.1457 8.79439 25.8726C8.95897 25.6082 9.11014 25.3356 9.24735 25.056C9.39389 24.7709 9.32062 24.5417 9.04352 24.3645C8.87863 24.2577 8.70833 24.1594 8.53328 24.0701C8.37608 23.9915 8.3521 23.9009 8.35077 23.7131C8.34411 23.1815 8.58124 22.9271 9.09148 22.8898ZM4.81509 24.7722C4.58701 24.7745 4.36077 24.7313 4.1496 24.6451C3.93844 24.5589 3.74659 24.4314 3.58531 24.2701C3.42403 24.1088 3.29655 23.917 3.21033 23.7058C3.12412 23.4947 3.0809 23.2684 3.08322 23.0403C3.0818 22.8092 3.1263 22.5802 3.21412 22.3664C3.30194 22.1527 3.43134 21.9585 3.59481 21.7951C3.75828 21.6318 3.95256 21.5025 4.16639 21.4149C4.38021 21.3272 4.60931 21.2829 4.8404 21.2845C5.30195 21.2928 5.74182 21.4818 6.06561 21.8108C6.3894 22.1399 6.5713 22.5827 6.57227 23.0443C6.57177 23.2736 6.52576 23.5004 6.43691 23.7118C6.34806 23.9231 6.21814 24.1147 6.05468 24.2754C5.89123 24.4361 5.69749 24.5628 5.4847 24.6481C5.27191 24.7334 5.04431 24.7756 4.81509 24.7722Z" fill="#352B2B"/>
</svg>
