<svg width="25" height="25" viewBox="0 0 25 25" fill="none" xmlns="http://www.w3.org/2000/svg">
<path d="M12.1803 10.0724C13.9867 10.0724 15.7931 10.0824 17.5995 10.0646C17.9993 10.0646 18.1563 10.1481 18.1508 10.5903C18.1307 13.6195 18.1307 16.6487 18.1508 19.678C18.1508 20.1156 18.0071 20.2081 17.6028 20.2058C13.9893 20.1925 10.3761 20.1925 6.76332 20.2058C6.36016 20.2058 6.21205 20.119 6.21539 19.6791C6.23395 16.6498 6.23395 13.621 6.21539 10.5925C6.21539 10.147 6.35794 10.0602 6.76109 10.0646C8.56749 10.0835 10.3728 10.0724 12.1803 10.0724ZM13.0545 13.8122H16.6384C16.7497 13.8275 16.8628 13.8229 16.9725 13.7988C17.0582 13.7643 17.1685 13.6607 17.1707 13.585C17.1729 13.5092 17.0593 13.419 16.968 13.3823C16.8734 13.3606 16.7756 13.3569 16.6796 13.3711H9.3816C9.26999 13.3612 9.15755 13.3668 9.04749 13.3878C8.98178 13.4057 8.88935 13.4925 8.89046 13.546C8.89335 13.5903 8.90628 13.6334 8.92828 13.672C8.95027 13.7106 8.98076 13.7437 9.01742 13.7687C9.13607 13.8044 9.26033 13.8176 9.38382 13.8077C10.6089 13.8122 11.8324 13.8136 13.0545 13.8122ZM13.0545 11.1115C11.805 11.1115 10.5554 11.1048 9.30587 11.1204C9.16443 11.1204 9.02522 11.2529 8.88489 11.3231C9.02633 11.4021 9.16666 11.5458 9.30921 11.5458C11.7942 11.5592 14.2796 11.5592 16.7653 11.5458C16.9068 11.5458 17.0471 11.3966 17.1874 11.3231C17.046 11.254 16.9045 11.1248 16.762 11.1226C15.5247 11.1048 14.2885 11.1115 13.0523 11.1115H13.0545ZM13.0545 16.0752C14.2907 16.0752 15.5269 16.0819 16.762 16.0663C16.9045 16.0663 17.0449 15.9337 17.1852 15.8625C17.0438 15.7845 16.9023 15.6397 16.7609 15.6397C14.2751 15.6264 11.7879 15.6264 9.29918 15.6397C9.15775 15.6397 9.01853 15.7878 8.8771 15.8625C9.01853 15.9326 9.15886 16.0618 9.30141 16.064C10.5554 16.0819 11.805 16.0752 13.0545 16.0752ZM13.0545 17.9484C11.805 17.9484 10.5554 17.9417 9.30587 17.9573C9.16443 17.9573 9.0241 18.0887 8.88378 18.1589C9.0241 18.2368 9.16443 18.3816 9.30587 18.3816C11.7916 18.3957 14.2788 18.3957 16.7676 18.3816C16.909 18.3816 17.0493 18.2346 17.1908 18.1589C17.0493 18.0887 16.909 17.9584 16.7664 17.9573C15.5258 17.9406 14.2896 17.9473 13.0534 17.9484H13.0545ZM7.74336 13.811C7.81241 13.811 7.89371 13.8344 7.94828 13.811C8.06426 13.744 8.17586 13.6696 8.28239 13.5883C8.17602 13.5036 8.05734 13.4356 7.93046 13.3867C7.76838 13.3505 7.6003 13.3505 7.43821 13.3867C7.34689 13.4079 7.27673 13.5271 7.19766 13.6017C7.27304 13.6821 7.3597 13.7511 7.45492 13.8066C7.55004 13.8252 7.64772 13.8267 7.74336 13.811ZM7.77232 11.0357L7.73111 11.1137C7.65058 11.0979 7.56775 11.0979 7.48721 11.1137C7.38464 11.1749 7.2884 11.2462 7.19989 11.3264C7.29311 11.4077 7.39211 11.4822 7.49613 11.5492C7.56293 11.5667 7.63312 11.5667 7.69993 11.5492C7.92267 11.5324 8.22113 11.6305 8.25677 11.3075C8.26568 11.2418 7.94271 11.1304 7.77232 11.0357ZM7.71441 16.0696L7.74782 16.1442C7.92712 16.0574 8.26234 15.9627 8.259 15.8847C8.24341 15.5506 7.93937 15.6397 7.71775 15.6264C7.63708 15.6085 7.55322 15.6112 7.47385 15.6342C7.3742 15.7052 7.28204 15.7862 7.19877 15.8758C7.28186 15.9482 7.37261 16.0113 7.4694 16.064C7.55003 16.081 7.63309 16.0829 7.71441 16.0696ZM7.74114 18.3905C7.82355 18.3905 7.92044 18.4184 7.98503 18.385C8.09172 18.3175 8.19167 18.2399 8.2835 18.1533C8.18216 18.0843 8.08749 17.9796 7.97612 17.9562C7.81461 17.9217 7.64762 17.9217 7.4861 17.9562C7.37473 17.9807 7.29455 18.0921 7.19989 18.1656C7.29129 18.2496 7.39091 18.3242 7.49724 18.3883C7.57735 18.4067 7.66041 18.4082 7.74114 18.3928V18.3905Z" fill="#352B2B"/>
<path d="M12.1375 8.19305C10.3445 8.19305 8.55148 8.18303 6.75956 8.20196C6.35195 8.20196 6.15037 8.10953 6.22276 7.67185C6.23733 7.56096 6.23733 7.44864 6.22276 7.33774C6.19269 7.0571 6.33413 6.97691 6.58916 6.98136C7.21394 6.99139 7.83983 6.98136 8.46572 6.98136C9.00586 6.98136 9.04706 6.93904 9.05041 6.37997C9.05041 5.78303 9.066 5.18499 9.05041 4.58805C9.03927 4.26842 9.13505 4.14258 9.46915 4.14258C12.2214 4.15149 14.973 4.15149 17.7238 4.14258C18.0579 4.14258 18.1492 4.26063 18.1437 4.58137C18.1258 5.63715 18.1236 6.69737 18.1437 7.74869C18.1503 8.1073 18.0178 8.19417 17.6848 8.19417C15.8339 8.18749 13.9851 8.19305 12.1375 8.19305Z" fill="#352B2B"/>
<path d="M0.00411343 4.8383C0.00411343 3.58874 0.00411343 2.33918 0.00411343 1.09074C0.00411343 0.290002 0.24801 0.0249478 1.04095 0.0216067C3.63696 0.00935616 6.23184 0.0216048 8.82785 0.0126953C9.13634 0.0126953 9.28223 0.10513 9.27332 0.442577C9.24548 1.78902 9.4259 1.52174 8.21755 1.53176C6.1498 1.5481 4.08169 1.5481 2.0132 1.53176C1.62119 1.53176 1.52207 1.65092 1.52429 2.02846C1.53989 4.277 1.52429 6.52553 1.53989 8.77406C1.53989 9.18056 1.41627 9.30418 1.01757 9.28636C-0.109484 9.23736 0.00745401 9.46233 0.00188558 8.2562C0.000771894 7.11356 0.00411343 5.97649 0.00411343 4.8383Z" fill="#352B2B"/>
<path d="M24.3652 4.92529C24.3652 6.20269 24.3529 7.48009 24.373 8.75638C24.373 9.15842 24.2382 9.28983 23.8429 9.2787C22.6267 9.24751 22.8406 9.41011 22.8283 8.26412C22.8172 6.16965 22.8172 4.07407 22.8283 1.97737C22.8283 1.63547 22.7336 1.52409 22.3828 1.52632C20.1198 1.5408 17.8568 1.52632 15.5949 1.54192C15.2151 1.54192 15.0782 1.43612 15.0871 1.0519C15.116 -0.162021 14.9545 0.0105991 16.125 0.00614438C18.4705 -0.00276511 20.817 0.00614438 23.1635 0.00614438C24.1235 0.00614438 24.3596 0.248926 24.3607 1.22229C24.3652 2.45625 24.3667 3.69059 24.3652 4.92529Z" fill="#352B2B"/>
<path d="M24.3536 19.4298C24.3536 20.6793 24.3536 21.9292 24.3536 23.1795C24.3536 24.0872 24.1242 24.3333 23.2332 24.3356C20.6918 24.3422 18.1504 24.3356 15.6078 24.3456C15.2024 24.3456 15.0855 24.2053 15.09 23.8132C15.1022 22.8176 15.09 22.8176 16.0811 22.8176H22.2476C22.8256 22.8176 22.8256 22.8176 22.8256 22.2196C22.8256 20.0122 22.8334 17.8038 22.8156 15.5953C22.8156 15.1955 22.927 15.0608 23.3324 15.0741C24.485 15.1109 24.3458 14.9227 24.3536 16.0976C24.3581 17.208 24.3536 18.3194 24.3536 19.4298Z" fill="#352B2B"/>
<path d="M4.84398 24.2984C3.53874 24.2984 2.2335 24.2984 0.928257 24.2984C0.303479 24.2984 0.0373087 24.0579 0.0105803 23.432C-0.00835239 23.0589 0.00389843 22.6836 0.00389843 22.3083C0.00389843 20.101 0.00389843 17.894 0.00389843 15.6874C0.00389843 15.0782 0.00389815 15.0727 0.595266 15.0771C1.70895 15.086 1.52631 14.958 1.53076 15.9915C1.54078 18.1008 1.54524 20.2112 1.52408 22.3205C1.52408 22.7326 1.65215 22.8284 2.04417 22.825C4.29382 22.8083 6.54235 22.825 8.79088 22.8094C9.16508 22.8094 9.2642 22.9342 9.26531 23.2861C9.26531 24.2996 9.28091 24.2996 8.263 24.2996L4.84398 24.2984Z" fill="#352B2B"/>
<path d="M12.1697 8.64203C14.5719 8.64203 16.9731 8.6476 19.3742 8.63423C19.7361 8.63423 19.9054 8.70662 19.882 9.11201C19.8519 9.64658 19.862 9.66885 19.363 9.66885C14.5597 9.66885 9.75748 9.66884 4.95415 9.67775C4.50868 9.67775 4.47861 9.47395 4.46858 9.12091C4.45856 8.73558 4.57995 8.62867 4.96529 8.63089C7.36639 8.64983 9.76862 8.64203 12.1697 8.64203Z" fill="#352B2B"/>
<path d="M6.77319 6.53682L8.60075 4.64355C8.60075 5.2249 8.60966 5.78508 8.5885 6.34303C8.5885 6.41097 8.42368 6.52457 8.33235 6.52791C7.79444 6.54573 7.25431 6.53682 6.77319 6.53682Z" fill="#352B2B"/>
</svg>
